# xmcd
#
# Track frame offsets:
# 150
# 12069
# 27652
# 50939
# 64944
# 86326
# 104047
# 125914
# 146391
# 173831
#
# Disc length: 3014 seconds
#
#
# Revision: 0
# Processed by: cddbd v1.4PL0 Copyright (c) Steve Scherf et al.
# Submitted via: FreeRIP 2.21 
#
DISCID=910bc40a
DTITLE=Mitch and Mitch - Luv Yer Country
DYEAR=2003
DGENRE=Primus
TTITLE0=Tramp of the North
TTITLE1=Barber's Got TV
TTITLE2=I'm on my Way
TTITLE3=Donnowdaname
TTITLE4=Ohyeah
TTITLE5=You Hit Me and I'll Hit You Back
TTITLE6=I Can't Get No Science Fiction
TTITLE7=I'm 30, I'm Lonely and I'm Horny
TTITLE8=Take Me Home
TTITLE9=data track 2
EXTD=
EXTT0=
EXTT1=
EXTT2=
EXTT3=
EXTT4=
EXTT5=
EXTT6=
EXTT7=
EXTT8=
EXTT9=
PLAYORDER=
